<?xml version="1.0" encoding="utf-8"?>
<!-- Generator: Adobe Illustrator 20.1.0, SVG Export Plug-In . SVG Version: 6.00 Build 0)  -->
<svg version="1.1" id="Logo_x5F_PC2_x5F_RGB" xmlns="http://www.w3.org/2000/svg" xmlns:xlink="http://www.w3.org/1999/xlink"
	 x="0px" y="0px" viewBox="0 0 297.6 184.3" style="enable-background:new 0 0 297.6 184.3;" xml:space="preserve">
<style type="text/css">
	.st0{fill:#6F6F71;}
	.st1{fill:#18AFE1;}
	.st2{fill:#5D5D5F;}
	.st3{fill:#84C8EB;}
</style>
<g>
	<path class="st0" d="M284.2,140.4c0,1.6-0.8,2.4-2.5,2.4c-1.5,0-2.5-0.8-2.5-2.4c0-1.6,0.9-2.5,2.5-2.5
		C283.4,137.9,284.2,138.8,284.2,140.4 M290.2,137.3l-1.4-1.9c-0.8,0.6-1.7,1-2.6,1c-1.2,0-2.3-0.7-4.3-0.7c-3.4,0-5.7,1.9-5.7,4.8
		c0,2,1.1,3.4,3.2,4c-1.5,0.5-2.7,1-2.7,2.5c0,1.4,0.8,2.2,4.7,2.2c2.6,0,3.9,0.4,3.9,2c0,1.3-1.2,2.2-3.4,2.2c-2,0-3.1-0.7-3.1-2.1
		c0-0.4,0.2-1,0.2-1h-2.9c0,0-0.3,0.8-0.3,1.5c0,2.7,2.7,3.9,6.4,3.9c3.8,0,6.3-1.6,6.3-4.7c0-2.9-2.5-4.1-4.7-4.1
		c-3.4,0-3.6-0.1-3.6-0.6c0-0.5,0.9-1,1.9-1.4c3.4,0,5.4-1.9,5.4-4.4c0-1.5-0.8-2.4-0.9-2.5c0.1,0,0.5,0.1,1.1,0.1
		C288.6,138.2,289.4,138,290.2,137.3 M272,150.2v-10.6c0-2.6-1.5-3.9-3.7-3.9c-1.5,0-2.8,0.7-4.4,2c0-0.8-0.2-1.4-0.5-2l-2.8,0.8
		c0.4,1,0.5,1.9,0.5,3.4v10.5h3v-10.3c0.9-0.9,2.2-1.6,3.1-1.6c1.2,0,1.6,0.5,1.6,2.5v9.5H272z M256.7,131.8c0-1.2-0.9-2.1-2-2.1
		c-1.2,0-2.1,0.9-2.1,2.1c0,1.1,0.9,2.1,2,2.1C255.8,133.8,256.7,132.9,256.7,131.8 M256.2,150.2v-14.6l-3.1,0.6v14H256.2z
		 M249.7,149.9l-0.4-1.9c-0.5,0.2-0.9,0.3-1.3,0.3c-1.4,0-1.7-0.5-1.7-2.3v-8h2.6l0.8-2.1h-3.4c0-1.4,0.1-3.1,0.3-4.3l-3.2,0.8
		c-0.1,1.1-0.1,2.3-0.1,3.5h-1.6v2.1h1.6v8.8c0,2,1,3.7,3.7,3.7C247.9,150.6,248.8,150.4,249.7,149.9 M239,149.2
		c0,0-0.9-0.7-0.9-2.8v-10.7l-3,0.6v10.2c-0.5,1-1.7,1.9-2.8,1.9c-1.8,0-2.1-1.3-2.1-3.1v-9.5l-3,0.6v9.7c0,1.8,0.2,2.7,0.8,3.4
		c0.7,0.8,1.9,1.4,3.5,1.4c1.6,0,3-0.6,4.1-1.7c0.3,0.8,0.6,1.3,1.2,1.8L239,149.2z M219.8,143.1c0,3.4-0.9,4.9-3,4.9
		c-0.9,0-1.9-0.5-2.7-1.3v-7.1c0.8-1,1.9-1.5,3-1.5C219.2,138.2,219.8,139.9,219.8,143.1z M223.2,142.8c0-5-2.5-7.1-5.4-7.1
		c-1.5,0-2.9,0.6-3.8,1.7c0-0.9-0.1-1.3-0.2-1.7l-2.8,0.5c0.2,1,0.3,1.8,0.3,3.5v16.6l3-0.8v-4.8c0-0.8-0.1-1.4-0.1-1.4
		c1,0.8,2.2,1.2,3.4,1.2C221.1,150.5,223.2,147.5,223.2,142.8L223.2,142.8z M206.3,150.2v-10.4c0-3-1.4-4.2-3.7-4.2
		c-1.5,0-2.9,0.7-4.3,2.1c-1-1.7-2.1-2.1-3.4-2.1c-1.3,0-2.6,0.6-3.8,1.8c-0.1-0.8-0.2-1.4-0.5-1.8l-2.8,0.8
		c0.3,0.8,0.5,1.8,0.5,3.6v10.2h3v-10.6c1-1,2.1-1.4,2.9-1.4c1.2,0,1.6,0.5,1.6,2.2v9.8h3v-10.4c1-0.9,2-1.6,3-1.6
		c1.1,0,1.5,0.5,1.5,2.1v9.9H206.3z M180.9,143.2c0,3.6-1,5.1-2.8,5.1c-1.9,0-2.9-1.2-2.9-5.4c0-3.5,0.8-5,2.8-5
		C179.8,137.9,180.9,139.2,180.9,143.2 M184.3,143.1c0-4.5-2.3-7.5-6.4-7.5c-3.8,0-6.2,2.9-6.2,7.5c0,4.6,2.4,7.5,6.3,7.5
		C181.9,150.6,184.3,147.7,184.3,143.1 M169.4,148.8l-1.5-2.1c-1.1,0.9-2.1,1.2-3.5,1.2c-1.9,0-3.5-0.9-4.3-2.8
		c-0.5-1.1-0.8-2.5-0.8-4.8c0-2.3,0.3-3.9,1-5.1c0.8-1.5,2.2-2.3,3.9-2.3c1.2,0,2.3,0.3,3.3,1.1l1.5-2.1c-1.2-1-3-1.5-4.8-1.5
		c-3,0-5.7,1.7-7.2,4.5c-0.9,1.6-1.3,3.6-1.3,5.9c0,2.8,0.8,5.2,2.2,7c1.5,1.8,3.6,2.8,6.2,2.8C166.1,150.5,167.8,149.9,169.4,148.8
		"/>
	<path class="st0" d="M289.3,118.2l-0.5-1.9c-0.4,0.2-0.8,0-1-0.2c-0.2-0.3-0.3-0.6-0.3-2.6v-12.1c0-1.9,0-3-0.3-3.9l-3.2,0.7
		c0.2,1.2,0.3,2.2,0.3,4.2v12.1c0,1.2,0,4,3.1,4C288.2,118.5,288.8,118.4,289.3,118.2 M277.2,109.6h-5.3c0-2.3,1-3.7,2.7-3.7
		C276.2,105.9,277.2,107.3,277.2,109.6 M280.4,111.9v-0.6c0-3.3-0.6-5.1-1.9-6.2c-1.2-1.1-2.5-1.5-3.9-1.5c-1.8,0-3.2,0.6-4.4,1.9
		c-1.2,1.4-1.8,3.1-1.8,5.6c0,4.6,2.5,7.5,6.6,7.5c1.9,0,3.6-0.6,5.1-1.9l-1.2-1.9c-1.1,0.9-2.2,1.4-3.5,1.4c-2.8,0-3.5-2.1-3.5-4.1
		v-0.2H280.4z M266.1,118.2l-0.5-1.9c-0.4,0.2-0.8,0-1-0.2c-0.2-0.3-0.3-0.6-0.3-2.6v-12.1c0-1.9,0-3-0.3-3.9l-3.2,0.7
		c0.2,1.2,0.3,2.2,0.3,4.2v12.1c0,1.2,0,4,3.1,4C265,118.5,265.6,118.4,266.1,118.2 M258,118.2l-0.5-1.9c-0.4,0.2-0.8,0-1-0.2
		c-0.2-0.3-0.3-0.6-0.3-2.6v-12.1c0-1.9,0-3-0.3-3.9l-3.2,0.7c0.2,1.2,0.3,2.2,0.3,4.2v12.1c0,1.2,0,4,3.1,4
		C256.9,118.5,257.4,118.4,258,118.2 M245.1,111.5l-0.1,3.4c-0.6,0.9-1.6,1.5-2.6,1.5c-1.2,0-2-0.8-2-2.2c0-1.8,0.9-2.7,4-2.7
		C244.8,111.5,245.1,111.5,245.1,111.5 M249.3,116.8c-1.1-0.8-1.3-1.4-1.2-3.3l0.1-4.1c0-2.1,0-2.9-0.2-3.5
		c-0.6-1.5-2.1-2.4-4.3-2.4c-2.1,0-3.9,0.6-6.1,1.9l1.4,2.2c0,0,2.2-1.6,4.3-1.6c1.7,0,2,0.9,2,2.5v0.8h-1c-4.6,0-7,1.7-7,5
		c0,2.5,1.5,4.3,4.7,4.3c1.5,0,2.8-0.5,3.9-1.7c0.3,0.9,1.1,1.6,1.9,1.9L249.3,116.8z M235.1,103.8c-0.4-0.2-0.6-0.2-1.1-0.2
		c-1.4,0-2.5,0.7-3.6,2.3c0-0.8-0.2-1.6-0.5-2.2l-2.8,0.7c0.3,0.9,0.5,2,0.5,3.8v10.1h3.1v-9.6c0.3-1.2,1.4-2.1,2.7-2.1
		c0.3,0,0.6,0.1,0.9,0.2L235.1,103.8z M219.5,111.5l-0.1,3.4c-0.6,0.9-1.6,1.5-2.6,1.5c-1.2,0-2-0.8-2-2.2c0-1.8,0.9-2.7,4-2.7
		C219.2,111.5,219.5,111.5,219.5,111.5 M223.8,116.8c-1.1-0.8-1.3-1.4-1.2-3.3l0.1-4.1c0-2.1,0-2.9-0.2-3.5
		c-0.6-1.5-2.1-2.4-4.3-2.4c-2.1,0-3.9,0.6-6.1,1.9l1.4,2.2c0,0,2.2-1.6,4.3-1.6c1.7,0,2,0.9,2,2.5v0.8h-1c-4.6,0-7,1.7-7,5
		c0,2.5,1.5,4.3,4.7,4.3c1.5,0,2.8-0.5,3.9-1.7c0.3,0.9,1.1,1.6,1.9,1.9L223.8,116.8z M205.3,104.7c0,2.3-1.1,3.4-3.5,3.4h-2.5v-6.8
		h2.5c1.3,0,2.1,0.3,2.7,1C205,102.9,205.3,103.7,205.3,104.7 M208.9,104.5c0-2.1-1-3.9-2.7-4.9c-1.1-0.6-2.1-0.9-5-0.9h-5.2v19.5
		h3.2v-7.4h3.3C206.1,110.8,208.9,108.4,208.9,104.5"/>
	<path class="st0" d="M290,71.8c-0.4-0.2-0.6-0.2-1.1-0.2c-1.4,0-2.5,0.7-3.6,2.3c0-0.8-0.2-1.6-0.5-2.2l-2.8,0.7
		c0.3,0.9,0.5,2,0.5,3.8v10.1h3.1v-9.6c0.3-1.2,1.4-2.1,2.7-2.1c0.3,0,0.6,0.1,0.9,0.2L290,71.8z M275,79.2c0,3.6-1,5.1-2.8,5.1
		c-1.9,0-2.9-1.2-2.9-5.4c0-3.5,0.8-5,2.8-5C273.9,73.9,275,75.1,275,79.2 M278.4,79.1c0-4.5-2.3-7.5-6.4-7.5
		c-3.8,0-6.2,2.9-6.2,7.5c0,4.6,2.4,7.5,6.3,7.5C275.9,86.5,278.4,83.7,278.4,79.1 M265.1,66.3c-1-0.6-2-0.8-3.2-0.8
		c-2.5,0-4.3,1.4-4.3,4.3c0,1.3,0.1,2.1,0.1,2.1h-1.4v2.1h1.3v12.1h3.1V74.1h2.9l0.8-2.1h-3.7v-2.2c0-1.3,0.7-2,1.8-2
		c0.6,0,1,0.2,1.7,0.5L265.1,66.3z M248.4,71.8c-0.4-0.2-0.6-0.2-1.1-0.2c-1.4,0-2.5,0.7-3.6,2.3c0-0.8-0.2-1.6-0.5-2.2l-2.8,0.7
		c0.3,0.9,0.5,2,0.5,3.8v10.1h3.1v-9.6c0.3-1.2,1.4-2.1,2.7-2.1c0.3,0,0.6,0.1,0.9,0.2L248.4,71.8z M233.6,77.6h-5.3
		c0-2.3,1-3.7,2.7-3.7C232.6,73.9,233.6,75.3,233.6,77.6 M236.8,79.9v-0.6c0-3.3-0.6-5.1-1.9-6.2c-1.2-1.1-2.5-1.5-3.9-1.5
		c-1.8,0-3.2,0.6-4.4,1.9c-1.2,1.4-1.8,3.1-1.8,5.6c0,4.6,2.5,7.5,6.6,7.5c1.9,0,3.6-0.6,5.1-1.9l-1.2-1.9c-1.1,0.9-2.2,1.4-3.5,1.4
		c-2.8,0-3.5-2.1-3.5-4.1v-0.2H236.8z M222.7,85.9l-0.4-1.9c-0.5,0.2-0.9,0.3-1.3,0.3c-1.4,0-1.7-0.5-1.7-2.3v-8h2.6l0.8-2.1h-3.4
		c0-1.4,0.1-3.1,0.3-4.3l-3.2,0.8c-0.1,1.1-0.1,2.3-0.1,3.5h-1.6v2.1h1.6v8.8c0,2,1,3.7,3.7,3.7C220.9,86.5,221.8,86.4,222.7,85.9
		 M211.3,86.2V75.5c0-2.6-1.5-3.9-3.7-3.9c-1.5,0-2.8,0.7-4.4,2c0-0.8-0.2-1.4-0.5-2l-2.8,0.8c0.4,1,0.5,1.9,0.5,3.4v10.5h3V75.8
		c0.9-0.9,2.2-1.6,3.1-1.6c1.2,0,1.6,0.5,1.6,2.5v9.5H211.3z M193.2,77.6h-5.3c0-2.3,1-3.7,2.7-3.7
		C192.2,73.9,193.2,75.3,193.2,77.6 M196.4,79.9v-0.6c0-3.3-0.6-5.1-1.9-6.2c-1.2-1.1-2.5-1.5-3.9-1.5c-1.8,0-3.2,0.6-4.4,1.9
		c-1.2,1.4-1.8,3.1-1.8,5.6c0,4.6,2.5,7.5,6.6,7.5c1.9,0,3.6-0.6,5.1-1.9l-1.2-1.9c-1.1,0.9-2.2,1.4-3.5,1.4c-2.8,0-3.5-2.1-3.5-4.1
		v-0.2H196.4z M182.1,84.8l-1.5-2.1c-1.1,0.9-2.1,1.2-3.5,1.2c-1.9,0-3.5-0.9-4.3-2.8c-0.5-1.1-0.8-2.4-0.8-4.8c0-2.3,0.3-3.9,1-5.1
		c0.8-1.5,2.2-2.3,3.9-2.3c1.2,0,2.3,0.3,3.3,1.1l1.5-2.1c-1.2-1-3-1.5-4.8-1.5c-3,0-5.7,1.7-7.2,4.5c-0.9,1.6-1.3,3.6-1.3,5.9
		c0,2.8,0.8,5.2,2.2,7c1.5,1.8,3.6,2.8,6.2,2.8C178.9,86.5,180.6,85.9,182.1,84.8"/>
	<path class="st0" d="M287.5,54.2V43.5c0-2.6-1.5-3.9-3.7-3.9c-1.5,0-2.8,0.7-4.4,2c0-0.8-0.2-1.4-0.5-2l-2.8,0.8
		c0.4,1,0.5,1.9,0.5,3.4v10.5h3V43.8c0.9-0.9,2.2-1.6,3.1-1.6c1.2,0,1.6,0.5,1.6,2.5v9.5H287.5z M273.5,39.8
		c-0.4-0.2-0.6-0.2-1.1-0.2c-1.4,0-2.5,0.7-3.6,2.3c0-0.8-0.2-1.6-0.5-2.3l-2.8,0.7c0.3,0.9,0.5,2,0.5,3.8v10.1h3.1v-9.6
		c0.3-1.2,1.4-2.1,2.7-2.1c0.3,0,0.6,0.1,0.9,0.2L273.5,39.8z M258.4,47.2c0,3.6-1,5.1-2.8,5.1c-1.9,0-2.9-1.2-2.9-5.4
		c0-3.5,0.8-5,2.8-5C257.3,41.9,258.4,43.1,258.4,47.2 M261.8,47.1c0-4.5-2.3-7.5-6.4-7.5c-3.8,0-6.2,2.9-6.2,7.5
		c0,4.6,2.4,7.5,6.3,7.5C259.4,54.5,261.8,51.7,261.8,47.1 M242.4,46.9c0,3.6-0.8,5-2.8,5c-1.1,0-2-0.6-2.6-1.2v-7
		c0.6-0.7,1.4-1.4,2.7-1.4C241.9,42.2,242.4,44.3,242.4,46.9 M245.9,46.8c0-4.5-2.1-7.2-5.5-7.2c-1.4,0-2.4,0.4-3.4,1.4l-0.1,0
		c0,0,0.1-0.4,0.1-1.3v-3.3c0-1.1-0.1-1.8-0.2-2.8l-3.2,0.7c0.3,0.8,0.4,1.8,0.4,3.4V51c0,1.9-0.1,2.5-0.4,3.2h2.8
		c0.2-0.4,0.3-0.6,0.4-1.3c0.9,1.1,2.1,1.6,3.5,1.6C243.5,54.5,245.9,51.4,245.9,46.8 M230.9,39.8c-0.4-0.2-0.6-0.2-1.1-0.2
		c-1.4,0-2.5,0.7-3.6,2.3c0-0.8-0.2-1.6-0.5-2.3l-2.8,0.7c0.3,0.9,0.5,2,0.5,3.8v10.1h3.1v-9.6c0.3-1.2,1.4-2.1,2.7-2.1
		c0.3,0,0.6,0.1,0.9,0.2L230.9,39.8z M216.1,45.6h-5.3c0-2.3,1-3.7,2.7-3.7C215.1,41.9,216.1,43.3,216.1,45.6 M219.3,47.9v-0.6
		c0-3.3-0.6-5.1-1.9-6.2c-1.2-1.1-2.5-1.5-3.9-1.5c-1.8,0-3.2,0.6-4.4,1.9c-1.2,1.4-1.8,3.1-1.8,5.6c0,4.6,2.5,7.5,6.6,7.5
		c1.9,0,3.6-0.6,5.1-1.9l-1.2-1.9c-1.1,0.9-2.2,1.4-3.5,1.4c-2.8,0-3.5-2.1-3.5-4.1v-0.2H219.3z M200.3,50.5
		c-0.4,0.7-1.4,1.4-2.5,1.4c-2.3,0-3-1.6-3-4.7c0-3.4,0.9-5,2.9-5c1,0,1.9,0.4,2.6,1.2V50.5z M203.8,54.2c-0.3-0.7-0.4-2.1-0.4-5
		V33.9l-3.1-0.5v5.2c0,1.2,0.1,2.3,0.1,2.3c-0.9-0.9-1.9-1.3-3.1-1.3c-3.4,0-5.9,3-5.9,7.5c0,4.5,2.2,7.3,5.8,7.3
		c1.4,0,2.5-0.4,3.5-1.4c0.1,0.6,0.1,0.8,0.3,1.1H203.8z M184.3,47.5l-0.1,3.4c-0.6,0.9-1.6,1.5-2.6,1.5c-1.2,0-2-0.8-2-2.2
		c0-1.8,0.9-2.7,4-2.7C183.9,47.4,184.3,47.5,184.3,47.5 M188.5,52.8c-1.1-0.8-1.3-1.4-1.2-3.3l0.1-4.1c0-2.1,0-2.9-0.2-3.5
		c-0.6-1.5-2.1-2.4-4.3-2.4c-2.1,0-3.9,0.6-6.1,1.9l1.4,2.2c0,0,2.2-1.6,4.3-1.6c1.7,0,2,0.9,2,2.5v0.8h-1c-4.6,0-7,1.7-7,5
		c0,2.5,1.5,4.3,4.7,4.3c1.5,0,2.8-0.4,3.9-1.7c0.3,0.9,1.1,1.6,1.9,1.9L188.5,52.8z M170,40.7c0,2.3-1.1,3.4-3.5,3.4H164v-6.8h2.5
		c1.3,0,2.1,0.3,2.7,1C169.8,38.8,170,39.7,170,40.7 M173.6,40.5c0-2.1-1-3.9-2.7-4.9c-1.1-0.6-2.1-0.9-5-0.9h-5.2v19.5h3.2v-7.4
		h3.3C170.8,46.7,173.6,44.4,173.6,40.5"/>
	<g>
		<polygon class="st1" points="130.7,110.4 70.9,170.1 70.9,161 126.1,105.8 121.4,101.1 70.9,151.6 70.9,142.5 116.8,96.5 
			112.2,91.9 70.9,133.1 29.7,91.9 6.7,114.9 70.9,179.1 135.2,114.9 		"/>
		<g>
			<path class="st2" d="M42,79.6l9.7,9.7l7.6-7.6c2-2,1.9-3,0-4.9L54.5,72c-1.9-1.9-2.9-2-4.9,0L42,79.6z"/>
			<path class="st2" d="M70.7,65.6c0.5,1.4,0.8,2.3,1.9,3.3c1,1,1.8,1.2,3.1,1.6l8.8,3c2.1,0.7,2.5,0.5,4.1-1.1l2.1-2.1L70.9,50.6
				l-2.3,2.3c-1.5,1.5-1.6,1.8-0.9,3.8L70.7,65.6z"/>
			<path class="st2" d="M94.1,73.8l-2.6,2.6c-2.6,2.6-5.1,3-8.4,1.9L73.7,75c-1.7-0.6-3.2-1.3-4.5-2.7c-1.5-1.5-2.2-2.7-2.8-4.8
				l-3.1-9.3l-8,8c1,0.5,1.8,1.3,2.7,2.2l4.6,4.6c1.7,1.7,2.8,3.1,3,5.8c0.2,2.8-1.1,4.4-2.9,6.2l-7.5,7.5l8.3,8.3
				c1.1,1.1,1.2,2.2,0,3.4c-1.2,1.2-2.3,1.1-3.4,0L38.6,83l-8.9,8.9l41.2,41.2l41.2-41.2L94.1,73.8z"/>
		</g>
		<path class="st0" d="M135.2,68.9L70.9,4.6L6.7,68.9l23,23l8.9-8.9l-3.4-3.4l11.3-11.3c1.6-1.6,2.9-2.5,5.3-2.5
			c1.4-0.1,2.4,0.2,3.3,0.7l8-8l-0.1-0.2c-1.2-3.5-0.6-5.9,2-8.5l5.8-5.8c0.8-0.8,2.1-1.3,3.4,0c1.2,1.2,0.8,2.6,0,3.4l-3.4,3.4
			l19.8,19.8l3.4-3.4c0.8-0.8,2.1-1.3,3.4,0c1.2,1.2,0.8,2.6,0,3.4l-3.4,3.4l18,18L135.2,68.9z M95,44l-6.9,6.9l-5.1-5.1
			c-1.2-1.2-1.2-2.3,0-3.5l4.4-4.4l-3.7-3.7l-5.4,5.4c-0.4,0.4-1,0.6-1.6,0c-0.6-0.6-0.4-1.1,0-1.6l5.2-5.2c0.5-0.5,0.9-0.8,1.7-0.8
			c0.8,0,1.3,0.3,1.9,0.9l3.2,3.2c0.6,0.6,0.9,1,0.9,1.9c0,0.7-0.3,1.2-0.8,1.7l-4.4,4.4l3.7,3.7l5.4-5.4c0.4-0.4,1-0.6,1.6,0
			C95.6,43,95.4,43.6,95,44z"/>
		<polygon class="st3" points="135.2,114.9 135.2,105.8 130.7,110.4 		"/>
		<polygon class="st3" points="121.4,101.1 126.1,105.8 135.2,96.6 135.2,87.4 		"/>
		<polygon class="st3" points="112.2,91.9 116.8,96.5 135.2,78.2 135.2,68.9 		"/>
	</g>
</g>
</svg>
